<svg preserveAspectRatio="none" overflow="visible" style="display: block;" width="22.0474" height="22.0474" viewBox="0 0 22.0474 22.0474" fill="none" xmlns="http://www.w3.org/2000/svg">
<path id="base" d="M12.0712 1.87611C12.1566 2.05048 12.1217 2.38671 12.1026 2.57166C12.1023 2.57505 12.1019 2.57844 12.1016 2.58183C12.0971 2.62573 12.0959 2.66725 12.0946 2.7159C12.0916 2.8319 12.0874 2.98862 12.033 3.31573C12.035 3.4109 12.0361 3.50609 12.0361 3.60126C12.0361 4.62907 11.9651 5.65688 11.8801 6.68469C11.8806 6.69768 11.881 6.71088 11.8815 6.72422C11.8903 6.98201 11.9012 7.30167 11.87 7.50252C11.8304 7.75788 11.7937 7.93131 11.762 8.07376C11.6936 8.89013 11.6325 9.70651 11.6072 10.5229C11.5993 10.7787 11.595 11.0346 11.595 11.2905C11.595 11.5261 11.5977 11.7618 11.6028 11.9974C11.6214 12.1346 11.6434 12.2651 11.6639 12.386C11.6926 12.556 11.7181 12.7074 11.7264 12.8324C11.7465 13.1336 11.7148 13.4752 11.6913 13.7289C11.6875 13.7704 11.6838 13.8095 11.6807 13.8458C11.6923 14.0473 11.7048 14.2488 11.7176 14.4503C11.7105 14.4637 11.7031 14.4773 11.6955 14.4911C11.6009 14.6631 11.6021 14.8745 11.6039 15.2072C11.6046 15.3521 11.6054 15.5201 11.5986 15.7178C11.5942 15.8452 11.5567 15.9107 11.5261 15.9642C11.5171 15.9799 11.5086 15.9947 11.5018 16.0096C11.4785 16.0608 11.5037 16.1147 11.5335 16.1785C11.5721 16.2612 11.6184 16.3604 11.5765 16.4914C11.4431 16.909 11.5336 17.093 11.6021 17.2322C11.6222 17.273 11.6403 17.3101 11.6504 17.3479C11.6831 17.4708 11.6507 17.6458 11.6063 17.7781C11.571 17.883 11.606 18.0929 11.6504 18.2521C11.6672 18.3122 11.6676 18.3936 11.668 18.4895C11.6685 18.5887 11.6688 18.7035 11.6877 18.8262C11.7353 19.1365 11.7584 19.3014 11.7769 19.434C11.7822 19.4718 11.787 19.507 11.792 19.5421C11.8078 19.6533 11.8208 19.7912 11.834 19.9308C11.8497 20.0979 11.8657 20.2674 11.887 20.3965C11.8644 20.7309 11.8365 21.0654 11.8087 21.3997C11.7942 21.5715 11.7128 21.7363 11.5786 21.8578C11.4442 21.9792 11.269 22.0474 11.0875 22.0474C10.906 22.0474 10.7308 21.9792 10.5965 21.8578C10.4622 21.7363 10.3807 21.5715 10.3662 21.3997C10.3374 21.0537 10.3086 20.7076 10.2856 20.3616C10.2576 19.94 10.2384 19.5184 10.2384 19.0969C10.2384 18.802 10.2427 18.5071 10.2505 18.2122C10.2513 18.1818 10.2522 18.1515 10.253 18.1211C10.2083 17.8734 10.1677 17.6261 10.1532 17.4519C10.1412 17.308 10.1651 17.2032 10.1855 17.1134C10.1995 17.0516 10.212 16.9969 10.21 16.9415C10.2089 16.9118 10.2062 16.8712 10.2028 16.8223C10.1893 16.6224 10.1664 16.2829 10.21 15.9733C10.2293 15.8358 10.2675 15.6762 10.3039 15.5238C10.356 15.3059 10.4045 15.1027 10.3896 15.0001C10.3634 14.8199 10.3856 14.6133 10.4052 14.4308C10.424 14.2566 10.4403 14.1044 10.4101 14.0177C10.3739 13.9143 10.3887 13.826 10.4105 13.6948C10.4256 13.6038 10.4441 13.4921 10.4515 13.3403C10.4601 13.165 10.4854 13.041 10.507 12.9357C10.5373 12.7873 10.5601 12.6757 10.5181 12.5094C10.4716 12.3247 10.4419 12.1316 10.4566 11.9795C10.4633 11.9102 10.4617 11.831 10.46 11.7485C10.4577 11.6394 10.4554 11.5246 10.4721 11.4198C10.4859 11.3334 10.5211 11.262 10.5523 11.1988C10.5621 11.1791 10.5713 11.1602 10.5795 11.1419C10.5791 11.0731 10.5784 11.0043 10.5774 10.9355C10.5717 10.9243 10.5654 10.9126 10.5589 10.9004C10.5264 10.8391 10.4865 10.7637 10.4666 10.6703C10.4351 10.5225 10.4548 10.3929 10.4758 10.2561C10.492 10.1496 10.509 10.0388 10.5029 9.91177C10.4988 9.82516 10.4844 9.72653 10.4701 9.62876C10.4489 9.48356 10.428 9.34017 10.4413 9.24054C10.4463 9.20321 10.4684 9.17111 10.4904 9.13936C10.4906 9.13922 10.4907 9.13908 10.4908 9.13894C10.4923 9.13678 10.4938 9.13462 10.4953 9.13246C10.4784 8.88983 10.4598 8.64717 10.4402 8.40454C10.4345 8.38351 10.4289 8.36227 10.4234 8.34121C10.3964 8.23832 10.3702 8.13835 10.333 8.07317C10.2926 8.00253 10.2692 7.82492 10.2444 7.63776C10.2282 7.5152 10.2115 7.38847 10.1891 7.28503C10.176 7.22455 10.1988 7.16718 10.2224 7.10816C10.2443 7.05309 10.2668 6.99654 10.2613 6.93473C10.2585 6.90377 10.249 6.87034 10.2389 6.83465C10.23 6.80323 10.2206 6.77002 10.2148 6.73524C10.2095 6.70292 10.2219 6.63096 10.2377 6.53869C10.2475 6.48166 10.2585 6.41687 10.2676 6.34886C10.2534 6.16911 10.2397 5.98933 10.2271 5.80959C10.2071 5.77209 10.1811 5.73955 10.1478 5.71379C10.1239 5.69531 10.0953 5.67958 10.0661 5.66341C10.0264 5.64142 9.9853 5.61866 9.95255 5.5873C9.92696 5.56279 9.91676 5.53387 9.92739 5.51446C9.93234 5.50542 9.94168 5.49848 9.95013 5.49218C9.9598 5.48496 9.96841 5.47851 9.96816 5.47065C9.96797 5.46497 9.96111 5.45907 9.95282 5.45181C9.93958 5.44021 9.92248 5.42513 9.92187 5.40219C9.91961 5.31679 9.92508 5.21973 9.93048 5.12464C9.93649 5.01891 9.94231 4.91556 9.93721 4.83322C9.93149 4.74098 9.95693 4.60954 9.98229 4.47788C9.99998 4.38603 10.0176 4.29405 10.0248 4.21514C10.0319 4.13781 10.0178 4.05729 10.0041 3.97931C9.98761 3.88571 9.97169 3.79568 9.994 3.71918C9.99853 3.7037 10.0261 3.68449 10.0606 3.66039C10.0851 3.6433 10.113 3.62364 10.1388 3.60126C10.1388 3.50387 10.1399 3.40647 10.142 3.30908C10.1383 3.30565 10.1345 3.30211 10.1306 3.29857C10.1305 3.29851 10.1304 3.29846 10.1303 3.2984C10.0426 3.21841 9.92252 3.10895 9.99413 2.95517C10.0123 2.91608 10.046 2.89147 10.0762 2.8693C10.1059 2.84753 10.1325 2.82807 10.1381 2.79958C10.1445 2.76722 10.1262 2.72903 10.1064 2.68738C10.0785 2.62891 10.0474 2.5636 10.0764 2.49807C10.0783 2.49359 10.0805 2.48878 10.0827 2.48377C10.1033 2.43627 10.1338 2.36594 10.1952 2.29596C10.2116 2.08835 10.2308 1.8807 10.2517 1.67309C10.2866 1.32701 10.3264 0.980862 10.3662 0.634819C10.3858 0.466465 10.4694 0.305004 10.6032 0.185955C10.7372 0.0668985 10.9094 0 11.0875 0C11.2656 9.9324e-06 11.4377 0.0669074 11.5717 0.185955C11.7055 0.305004 11.7891 0.466458 11.8087 0.634819C11.8402 0.909351 11.8718 1.18397 11.901 1.45854C11.9047 1.47293 11.9083 1.48738 11.9116 1.50177C11.9366 1.6088 11.9867 1.70811 12.0369 1.80748C12.0484 1.83031 12.06 1.85318 12.0712 1.87611ZM20.1713 12.0712C19.9969 12.1566 19.6607 12.1217 19.4758 12.1026C19.4724 12.1023 19.469 12.1019 19.4656 12.1016C19.4217 12.0971 19.3802 12.0959 19.3315 12.0946C19.2155 12.0916 19.0588 12.0874 18.7317 12.033C18.6365 12.035 18.5413 12.0361 18.4462 12.0361C17.4184 12.0361 16.3906 11.9651 15.3627 11.8801C15.3498 11.8806 15.3366 11.881 15.3232 11.8815C15.0654 11.8903 14.7458 11.9012 14.5449 11.87C14.2896 11.8304 14.1161 11.7937 13.9737 11.762C13.1573 11.6936 12.3409 11.6325 11.5246 11.6072C11.2687 11.5993 11.0128 11.595 10.7569 11.595C10.5213 11.595 10.2857 11.5977 10.05 11.6028C9.91282 11.6214 9.78237 11.6434 9.66139 11.6639C9.4914 11.6926 9.34006 11.7181 9.21505 11.7264C8.91387 11.7465 8.57221 11.7148 8.3185 11.6913C8.27704 11.6875 8.23789 11.6838 8.20168 11.6807C8.00018 11.6923 7.79864 11.7048 7.59714 11.7176C7.58368 11.7105 7.57013 11.7031 7.55635 11.6955C7.38438 11.6009 7.17297 11.6021 6.8402 11.6038C6.69529 11.6046 6.52733 11.6054 6.3296 11.5986C6.20219 11.5942 6.13674 11.5567 6.08326 11.5261C6.06753 11.5171 6.05278 11.5086 6.03785 11.5018C5.98666 11.4785 5.9327 11.5037 5.86896 11.5335C5.78628 11.5721 5.68706 11.6184 5.55601 11.5765C5.13842 11.4431 4.95441 11.5336 4.81522 11.6021C4.7744 11.6222 4.73738 11.6403 4.69949 11.6504C4.57663 11.6831 4.4016 11.6507 4.2693 11.6063C4.1644 11.571 3.95453 11.606 3.79537 11.6504C3.7352 11.6672 3.6538 11.6676 3.55795 11.668C3.45875 11.6685 3.34398 11.6688 3.22119 11.6877C2.91091 11.7353 2.74602 11.7584 2.61346 11.7769C2.57566 11.7822 2.54046 11.787 2.5053 11.792C2.39418 11.8078 2.25627 11.8208 2.11665 11.834C1.94957 11.8497 1.77999 11.8657 1.65097 11.887C1.31654 11.8644 0.98208 11.8365 0.647688 11.8087C0.475924 11.7942 0.311109 11.7128 0.189655 11.5786C0.0682167 11.4442 1.28493e-05 11.269 0 11.0875C1.16812e-06 10.906 0.0682238 10.7308 0.189655 10.5965C0.311109 10.4622 0.475924 10.3807 0.647688 10.3662C0.993713 10.3374 1.33981 10.3086 1.68587 10.2856C2.10742 10.2576 2.529 10.2384 2.95055 10.2384C3.24544 10.2384 3.54034 10.2427 3.83524 10.2505C3.8656 10.2513 3.89596 10.2522 3.92633 10.253C4.17407 10.2083 4.42133 10.1677 4.59554 10.1532C4.73939 10.1412 4.84425 10.1651 4.93406 10.1855C4.99587 10.1995 5.05055 10.212 5.10589 10.21C5.1356 10.2089 5.1762 10.2062 5.22515 10.2028C5.42502 10.1893 5.76449 10.1664 6.07418 10.21C6.21159 10.2293 6.37123 10.2675 6.52363 10.3039C6.74155 10.356 6.94476 10.4045 7.04735 10.3896C7.2275 10.3634 7.4341 10.3856 7.61665 10.4052C7.79078 10.424 7.94307 10.4403 8.02969 10.4101C8.13318 10.3739 8.22144 10.3887 8.35265 10.4105C8.44365 10.4256 8.55535 10.4441 8.70715 10.4515C8.8824 10.4601 9.00638 10.4854 9.11177 10.507C9.26009 10.5373 9.37169 10.5601 9.53801 10.5181C9.72277 10.4716 9.91588 10.4419 10.068 10.4566C10.1372 10.4633 10.2165 10.4617 10.2989 10.46C10.4081 10.4577 10.5229 10.4554 10.6277 10.4721C10.714 10.4859 10.7854 10.5211 10.8486 10.5523C10.8683 10.5621 10.8872 10.5713 10.9055 10.5795C10.9743 10.5791 11.0431 10.5784 11.1119 10.5774C11.1231 10.5717 11.1348 10.5654 11.147 10.5589C11.2084 10.5264 11.2838 10.4865 11.3771 10.4666C11.5249 10.4351 11.6546 10.4548 11.7913 10.4758C11.8978 10.492 12.0086 10.509 12.1357 10.5029C12.2223 10.4988 12.3209 10.4844 12.4187 10.4701C12.5639 10.4489 12.7073 10.428 12.8069 10.4413C12.8442 10.4463 12.8763 10.4684 12.9081 10.4904C12.9082 10.4906 12.9084 10.4907 12.9085 10.4908C12.9106 10.4923 12.9128 10.4938 12.915 10.4953C13.1576 10.4784 13.4003 10.4598 13.6429 10.4402C13.6639 10.4345 13.6852 10.4289 13.7062 10.4234C13.8091 10.3964 13.9091 10.3702 13.9743 10.333C14.0449 10.2926 14.2225 10.2692 14.4097 10.2444C14.5322 10.2282 14.659 10.2115 14.7624 10.1891C14.8229 10.176 14.8803 10.1988 14.9393 10.2224C14.9943 10.2443 15.0509 10.2668 15.1127 10.2613C15.1437 10.2585 15.1771 10.249 15.2128 10.2389C15.2442 10.23 15.2774 10.2206 15.3122 10.2148C15.3445 10.2095 15.4165 10.2219 15.5087 10.2377C15.5658 10.2475 15.6306 10.2585 15.6986 10.2676C15.8783 10.2534 16.0581 10.2397 16.2378 10.2271C16.2753 10.2071 16.3079 10.1811 16.3336 10.1478C16.3521 10.1239 16.3679 10.0953 16.384 10.0661C16.406 10.0264 16.4288 9.9853 16.4601 9.95255C16.4846 9.92696 16.5136 9.91676 16.533 9.92739C16.542 9.93234 16.549 9.94168 16.5553 9.95013C16.5625 9.9598 16.5689 9.96841 16.5768 9.96816C16.5825 9.96797 16.5884 9.96111 16.5956 9.95282C16.6072 9.93957 16.6223 9.92248 16.6452 9.92187C16.7306 9.91961 16.8277 9.92508 16.9228 9.93048C17.0285 9.93649 17.1319 9.94231 17.2142 9.93721C17.3065 9.93149 17.4379 9.95693 17.5696 9.98229C17.6614 9.99998 17.7534 10.0176 17.8323 10.0248C17.9096 10.0319 17.9901 10.0178 18.0681 10.0041C18.1617 9.98761 18.2517 9.97169 18.3283 9.994C18.3437 9.99853 18.3629 10.0261 18.387 10.0606C18.4041 10.0851 18.4238 10.113 18.4462 10.1388C18.5436 10.1388 18.641 10.1399 18.7383 10.142C18.7418 10.1383 18.7453 10.1345 18.7489 10.1306C18.7489 10.1305 18.749 10.1304 18.749 10.1303C18.829 10.0426 18.9385 9.92252 19.0923 9.99413C19.1314 10.0123 19.156 10.046 19.1781 10.0762C19.1999 10.1059 19.2194 10.1325 19.2479 10.1381C19.2802 10.1445 19.3184 10.1262 19.36 10.1064C19.4185 10.0785 19.4838 10.0474 19.5494 10.0764C19.5538 10.0783 19.5587 10.0805 19.5637 10.0827C19.6112 10.1033 19.6815 10.1338 19.7515 10.1952C19.9591 10.2116 20.1667 10.2308 20.3743 10.2517C20.7204 10.2866 21.0666 10.3264 21.4126 10.3662C21.581 10.3858 21.7424 10.4694 21.8615 10.6032C21.9805 10.7372 22.0474 10.9094 22.0474 11.0875C22.0474 11.2656 21.9805 11.4377 21.8615 11.5717C21.7424 11.7055 21.581 11.7891 21.4126 11.8087C21.1381 11.8402 20.8635 11.8718 20.5889 11.901C20.5745 11.9047 20.5601 11.9083 20.5457 11.9116C20.4386 11.9366 20.3393 11.9867 20.2399 12.0369C20.2171 12.0484 20.1943 12.06 20.1713 12.0712Z" fill="#181B46"/>
</svg>
